<svg preserveAspectRatio="none" width="100%" height="100%" overflow="visible" style="display: block;" viewBox="0 0 2054.31 1255.92" fill="none" xmlns="http://www.w3.org/2000/svg">
<g id="Vector">
<path d="M808.674 451.192C730.647 391.857 618.141 544.736 558.174 467.192C533.241 434.951 523.875 408.354 526.674 367.692C534.252 257.648 703.023 319.991 808.674 351.692C890.252 376.171 946.686 396.155 993.674 467.192C1027.53 518.376 1043.55 557.157 1037.17 618.192C1032.47 663.236 999.417 680.77 993.674 725.692C973.304 885.044 1498.09 921.514 1339.67 948.192C1300.59 954.775 1277.57 952.535 1238.17 948.192C1135.11 936.833 1077.17 890.692 993.674 844.692C910.175 798.692 775.471 821.605 778.674 725.692C780.852 660.498 878.006 661.131 884.174 596.192C890.212 532.636 859.493 489.837 808.674 451.192Z" fill="var(--fill-0, white)" fill-opacity="0.01"/>
<path d="M1437.86 927.629C1418.9 913.233 1391.55 950.324 1376.97 931.511C1370.91 923.688 1368.63 917.236 1369.31 907.371C1371.15 880.672 1412.18 895.798 1437.86 903.489C1457.69 909.428 1471.41 914.276 1482.83 931.511C1491.06 943.929 1494.96 953.337 1493.41 968.145C1492.26 979.074 1484.23 983.328 1482.83 994.226C1477.88 1032.89 1605.45 1041.74 1566.94 1048.21C1557.44 1049.8 1551.85 1049.26 1542.27 1048.21C1517.22 1045.45 1503.13 1034.26 1482.83 1023.1C1462.54 1011.94 1429.79 1017.5 1430.57 994.226C1431.1 978.409 1454.72 978.563 1456.22 962.808C1457.68 947.388 1450.22 937.005 1437.86 927.629Z" fill="var(--fill-0, white)" fill-opacity="0.01"/>
<path d="M1669.86 804.629C1650.9 790.233 1623.55 827.324 1608.97 808.511C1602.91 800.688 1600.63 794.236 1601.31 784.371C1603.15 757.672 1644.18 772.798 1669.86 780.489C1689.69 786.428 1703.41 791.276 1714.83 808.511C1723.06 820.929 1726.96 830.337 1725.41 845.145C1724.26 856.074 1716.23 860.328 1714.83 871.226C1709.88 909.887 1837.45 918.735 1798.94 925.208C1789.44 926.805 1783.85 926.261 1774.27 925.208C1749.22 922.452 1735.13 911.258 1714.83 900.097C1694.54 888.937 1661.79 894.496 1662.57 871.226C1663.1 855.409 1686.72 855.563 1688.22 839.808C1689.68 824.388 1682.22 814.005 1669.86 804.629Z" fill="var(--fill-0, white)" fill-opacity="0.01"/>
<path d="M1632.86 927.629C1613.9 913.233 1586.55 950.324 1571.97 931.511C1565.91 923.688 1563.63 917.236 1564.31 907.371C1566.15 880.672 1607.18 895.798 1632.86 903.489C1652.69 909.428 1666.41 914.276 1677.83 931.511C1686.06 943.929 1689.96 953.337 1688.41 968.145C1687.26 979.074 1679.23 983.328 1677.83 994.226C1672.88 1032.89 1800.45 1041.74 1761.94 1048.21C1752.44 1049.8 1746.85 1049.26 1737.27 1048.21C1712.22 1045.45 1698.13 1034.26 1677.83 1023.1C1657.54 1011.94 1624.79 1017.5 1625.57 994.226C1626.1 978.409 1649.72 978.563 1651.22 962.808C1652.68 947.388 1645.22 937.005 1632.86 927.629Z" fill="var(--fill-0, white)" fill-opacity="0.01"/>
<path d="M914.116 894.699C880.715 869.3 832.555 934.741 806.885 901.548C796.212 887.747 792.202 876.362 793.401 858.957C796.645 811.852 868.89 838.538 914.116 852.108C949.037 862.586 973.195 871.14 993.309 901.548C1007.8 923.457 1014.66 940.057 1011.93 966.184C1009.92 985.464 995.767 992.97 993.309 1012.2C984.589 1080.41 1209.23 1096.02 1141.42 1107.44C1124.69 1110.26 1114.84 1109.3 1097.97 1107.44C1053.85 1102.58 1029.05 1082.83 993.309 1063.14C957.565 1043.45 899.903 1053.25 901.274 1012.2C902.206 984.292 943.795 984.564 946.435 956.766C949.019 929.561 935.87 911.241 914.116 894.699Z" fill="var(--fill-0, white)" fill-opacity="0.01"/>
<path d="M1300.27 757.596C1380.68 813.656 1486.78 656.259 1549.9 731.258C1576.14 762.442 1586.6 788.629 1585.48 829.372C1582.46 939.635 1411.25 884.32 1304.38 857.011C1221.86 835.924 1164.65 818.289 1114.77 749.254C1078.83 699.513 1061.22 661.427 1065.07 600.18C1067.9 554.981 1100.21 536.096 1104.09 490.975C1117.86 330.917 592.008 316.164 749.189 282.962C787.971 274.77 811.057 276.057 850.602 278.768C954.045 285.859 1013.84 329.566 1099.17 372.076C1184.5 414.587 1318.14 386.128 1318.9 482.091C1319.42 547.32 1222.32 550.701 1218.84 615.839C1215.44 679.591 1247.9 721.085 1300.27 757.596Z" fill="var(--fill-0, white)" fill-opacity="0.01"/>
<path d="M1308.28 345.562C1226.5 291.508 1163.24 418.978 1098.29 345.562C1071.28 315.037 1060.18 289.117 1060.29 248.359C1060.58 138.054 1227.86 211.9 1335.37 236.558C1418.39 255.597 1430.2 266.778 1481.78 334.558C1518.94 383.394 1523.1 430.734 1520.78 492.058C1519.06 537.313 1523.54 534.354 1520.78 579.558C1510.97 739.907 2066.15 736.838 1909.84 773.917C1871.27 783.066 1848.16 782.35 1808.56 780.618C1704.97 776.088 1644.11 733.873 1557.76 693.486C1471.4 653.1 1338.51 684.855 1335.37 588.941C1333.24 523.744 1356.41 529.813 1358.28 464.609C1360.1 400.792 1361.53 380.767 1308.28 345.562Z" fill="var(--fill-0, white)" fill-opacity="0.01"/>
<path d="M1551.49 320.514C1481.99 274.579 1399.47 343.154 1344.27 280.765C1321.32 254.825 1358.68 231.901 1358.77 197.265C1359.02 103.529 1454.54 215.19 1545.9 236.144C1616.45 252.323 1665.42 266.103 1709.25 323.702C1740.83 365.203 1756.59 397.188 1754.61 449.3C1753.15 487.758 1726.1 504.48 1723.76 542.894C1715.42 679.158 2162.46 680.639 2029.63 712.148C1996.85 719.923 1977.21 719.315 1943.56 717.843C1855.53 713.993 1803.82 678.119 1730.43 643.799C1657.05 609.478 1544.11 636.464 1541.45 554.957C1539.64 499.553 1622.05 494.639 1623.64 439.229C1625.19 384.999 1596.74 350.431 1551.49 320.514Z" fill="var(--fill-0, white)" fill-opacity="0.01"/>
<path d="M541.343 519.989C616.98 582.342 735.403 433.999 792.278 513.838C815.926 547.034 824.241 573.978 819.846 614.498C807.953 724.16 641.76 655.238 537.435 619.412C456.882 591.749 401.276 569.564 357.114 496.736C325.294 444.263 310.813 404.883 319.577 344.145C326.045 299.321 359.762 283.098 367.265 238.436C393.877 80.0067 -129.074 22.9572 30.2689 2.52021C69.5851 -2.52236 92.492 0.619459 131.691 6.506C234.227 21.9041 290.309 70.284 371.938 119.527C453.567 168.771 589.067 151.166 582.099 246.878C577.363 311.937 480.309 307.489 471.595 372.136C463.067 435.406 492.081 479.379 541.343 519.989Z" fill="var(--fill-0, white)" fill-opacity="0.01"/>
<path d="M735.343 1101.99C810.98 1164.34 929.403 1016 986.278 1095.84C1009.93 1129.03 1018.24 1155.98 1013.85 1196.5C1001.95 1306.16 835.76 1237.24 731.435 1201.41C650.882 1173.75 595.276 1151.56 551.114 1078.74C519.294 1026.26 504.813 986.883 513.577 926.144C520.045 881.32 553.762 865.098 561.265 820.436C587.877 662.007 64.9256 604.957 224.269 584.52C263.585 579.478 286.492 582.619 325.691 588.506C428.227 603.904 484.309 652.284 565.938 701.527C647.567 750.771 783.066 733.166 776.099 828.878C771.363 893.937 674.309 889.489 665.595 954.136C657.067 1017.41 686.081 1061.38 735.343 1101.99Z" fill="var(--fill-0, white)" fill-opacity="0.01"/>
</g>
</svg>
