<svg preserveAspectRatio="none" width="100%" height="100%" overflow="visible" style="display: block;" viewBox="0 0 1752 1071" fill="none" xmlns="http://www.w3.org/2000/svg">
<g id="Vector">
<path d="M689.672 384.758C623.127 334.16 527.177 464.529 476.035 398.403C454.771 370.908 446.783 348.228 449.17 313.553C455.633 219.712 599.568 272.875 689.672 299.909C759.245 320.783 807.375 337.825 847.448 398.403C876.322 442.05 889.981 475.121 884.547 527.169C880.536 565.58 852.346 580.533 847.448 618.841C830.075 754.73 1277.64 785.829 1142.53 808.58C1109.2 814.193 1089.57 812.283 1055.97 808.58C968.073 798.893 918.66 759.546 847.448 720.319C776.236 681.092 661.355 700.631 664.087 618.841C665.944 563.245 748.801 563.786 754.062 508.409C759.21 454.21 733.012 417.713 689.672 384.758Z" fill="var(--fill-0, white)" fill-opacity="0.02"/>
<path d="M1226.27 791.044C1210.09 778.768 1186.77 810.397 1174.34 794.354C1169.17 787.684 1167.23 782.181 1167.81 773.769C1169.38 751.001 1204.37 763.9 1226.27 770.458C1243.18 775.523 1254.88 779.657 1264.62 794.354C1271.64 804.944 1274.96 812.967 1273.64 825.595C1272.67 834.914 1265.81 838.542 1264.62 847.836C1260.4 880.804 1369.2 888.349 1336.35 893.869C1328.25 895.231 1323.48 894.767 1315.31 893.869C1293.95 891.519 1281.93 881.973 1264.62 872.456C1247.31 862.939 1219.39 867.679 1220.05 847.836C1220.5 834.347 1240.64 834.478 1241.92 821.043C1243.17 807.894 1236.81 799.039 1226.27 791.044Z" fill="var(--fill-0, white)" fill-opacity="0.02"/>
<path d="M1424.13 686.155C1407.95 673.879 1384.63 705.508 1372.2 689.465C1367.03 682.794 1365.09 677.292 1365.67 668.879C1367.24 646.112 1402.23 659.01 1424.13 665.569C1441.04 670.633 1452.74 674.768 1462.48 689.465C1469.5 700.054 1472.82 708.078 1471.5 720.705C1470.53 730.025 1463.67 733.652 1462.48 742.946C1458.26 775.915 1567.06 783.46 1534.21 788.979C1526.11 790.341 1521.34 789.878 1513.17 788.979C1491.81 786.629 1479.79 777.083 1462.48 767.566C1445.17 758.049 1417.25 762.79 1417.91 742.946C1418.36 729.458 1438.5 729.589 1439.78 716.154C1441.03 703.005 1434.67 694.15 1424.13 686.155Z" fill="var(--fill-0, white)" fill-opacity="0.02"/>
<path d="M1392.57 791.044C1376.4 778.768 1353.07 810.397 1340.64 794.354C1335.47 787.684 1333.53 782.181 1334.11 773.769C1335.68 751.001 1370.67 763.9 1392.57 770.458C1409.49 775.523 1421.19 779.657 1430.93 794.354C1437.95 804.944 1441.27 812.967 1439.95 825.595C1438.97 834.914 1432.12 838.542 1430.93 847.836C1426.7 880.804 1535.5 888.349 1502.66 893.869C1494.56 895.231 1489.78 894.767 1481.62 893.869C1460.25 891.519 1448.24 881.973 1430.93 872.456C1413.62 862.939 1385.69 867.679 1386.36 847.836C1386.81 834.347 1406.95 834.478 1408.23 821.043C1409.48 807.894 1403.11 799.039 1392.57 791.044Z" fill="var(--fill-0, white)" fill-opacity="0.02"/>
<path d="M779.597 762.963C751.111 741.304 710.038 797.109 688.146 768.803C679.044 757.034 675.624 747.326 676.646 732.483C679.413 692.314 741.027 715.071 779.597 726.643C809.379 735.578 829.982 742.873 847.136 768.803C859.496 787.486 865.343 801.642 863.017 823.922C861.3 840.364 849.232 846.764 847.136 863.162C839.699 921.329 1031.29 934.642 973.452 944.38C959.182 946.783 950.78 945.965 936.397 944.38C898.771 940.233 877.62 923.391 847.136 906.6C816.652 889.809 767.475 898.172 768.645 863.162C769.44 839.364 804.908 839.596 807.16 815.891C809.364 792.692 798.15 777.069 779.597 762.963Z" fill="var(--fill-0, white)" fill-opacity="0.02"/>
<path d="M1108.93 646.047C1177.51 693.853 1267.99 559.63 1321.82 623.587C1344.2 650.18 1353.12 672.511 1352.17 707.254C1349.59 801.283 1203.58 754.112 1112.43 730.824C1042.06 712.842 993.265 697.803 950.722 638.933C920.07 596.516 905.055 564.038 908.334 511.809C910.754 473.265 938.302 457.161 941.613 418.683C953.355 282.193 504.89 269.612 638.94 241.298C672.015 234.313 691.704 235.41 725.43 237.722C813.65 243.769 864.647 281.04 937.419 317.292C1010.19 353.543 1124.17 329.274 1124.82 411.107C1125.26 466.732 1042.45 469.616 1039.48 525.163C1036.58 579.527 1064.26 614.911 1108.93 646.047Z" fill="var(--fill-0, white)" fill-opacity="0.02"/>
<path d="M1115.75 294.681C1046.01 248.586 992.062 357.287 936.665 294.681C913.632 268.651 904.163 246.547 904.257 211.79C904.509 117.727 1047.17 180.7 1138.86 201.727C1209.66 217.962 1219.74 227.497 1263.72 285.297C1295.41 326.943 1298.97 367.313 1296.98 419.607C1295.52 458.199 1299.34 455.675 1296.98 494.223C1288.62 630.962 1762.1 628.345 1628.79 659.965C1595.9 667.767 1576.19 667.156 1542.42 665.679C1454.07 661.816 1402.17 625.817 1328.52 591.377C1254.88 556.937 1141.54 584.016 1138.86 502.224C1137.04 446.628 1156.8 451.803 1158.4 396.199C1159.95 341.779 1161.17 324.703 1115.75 294.681Z" fill="var(--fill-0, white)" fill-opacity="0.02"/>
<path d="M1323.17 273.321C1263.91 234.15 1193.53 292.627 1146.45 239.425C1126.88 217.305 1158.74 197.756 1158.82 168.22C1159.03 88.2856 1240.49 183.505 1318.41 201.374C1378.58 215.171 1420.34 226.922 1457.72 276.04C1484.66 311.43 1498.09 338.706 1496.41 383.145C1495.16 415.94 1472.1 430.2 1470.09 462.958C1462.99 579.158 1844.24 580.421 1730.95 607.291C1703 613.921 1686.25 613.402 1657.55 612.147C1582.48 608.864 1538.37 578.272 1475.79 549.005C1413.2 519.738 1316.89 542.751 1314.61 473.244C1313.07 425.999 1383.36 421.808 1384.71 374.557C1386.03 328.311 1361.77 298.833 1323.17 273.321Z" fill="var(--fill-0, white)" fill-opacity="0.02"/>
<path d="M461.68 443.425C526.187 496.598 627.183 370.096 675.688 438.18C695.856 466.488 702.948 489.465 699.2 524.019C689.057 617.534 547.321 558.76 458.348 528.209C389.648 504.619 342.225 485.701 304.562 423.596C277.425 378.849 265.074 345.267 272.549 293.472C278.065 255.248 306.821 241.414 313.219 203.328C335.915 68.2264 -110.08 19.577 25.8146 2.14913C59.3452 -2.15097 78.8811 0.52825 112.311 5.54805C199.759 18.6789 247.588 59.9353 317.204 101.928C386.821 143.921 502.381 128.908 496.439 210.528C492.4 266.007 409.628 262.214 402.196 317.342C394.923 371.296 419.668 408.795 461.68 443.425Z" fill="var(--fill-0, white)" fill-opacity="0.02"/>
<path d="M627.132 939.731C691.639 992.904 792.634 866.402 841.14 934.486C861.308 962.794 868.399 985.771 864.651 1020.32C854.508 1113.84 712.772 1055.07 623.799 1024.51C555.1 1000.93 507.677 982.006 470.013 919.902C442.876 875.155 430.526 841.573 438 789.778C443.516 751.554 472.272 737.72 478.671 699.634C501.367 564.532 55.3713 515.883 191.266 498.455C224.797 494.155 244.333 496.834 277.763 501.854C365.21 514.985 413.039 556.241 482.656 598.234C552.273 640.227 667.833 625.214 661.89 706.834C657.851 762.313 575.079 758.52 567.648 813.648C560.375 867.602 585.119 905.1 627.132 939.731Z" fill="var(--fill-0, white)" fill-opacity="0.02"/>
</g>
</svg>
